<svg width="60" height="60" viewBox="0 0 60 60" fill="none" xmlns="http://www.w3.org/2000/svg">
<rect width="60" height="60" rx="30" fill="#FCE588"/>
<g clip-path="url(#clip0_246_1406)">
<path d="M17.5 28.75V39.375C17.5 39.7203 17.7797 40 18.125 40H21.25V27.5H18.75C18.0598 27.5 17.5 28.0598 17.5 28.75ZM31.5625 26.875H30.625V25.3125C30.625 25.1398 30.4852 25 30.3125 25H29.6875C29.5148 25 29.375 25.1398 29.375 25.3125V27.8125C29.375 27.9852 29.5148 28.125 29.6875 28.125H31.5625C31.7352 28.125 31.875 27.9852 31.875 27.8125V27.1875C31.875 27.0148 31.7352 26.875 31.5625 26.875ZM36.9434 24.3766L30.6934 20.2098C30.488 20.073 30.2468 20 30 20C29.7532 20 29.512 20.073 29.3066 20.2098L23.0566 24.3766C22.8854 24.4907 22.7451 24.6453 22.648 24.8267C22.5509 25.0081 22.5 25.2107 22.5 25.4164V40H27.5V34.375C27.5 34.0297 27.7797 33.75 28.125 33.75H31.875C32.2203 33.75 32.5 34.0297 32.5 34.375V40H37.5V25.4168C37.5 24.9988 37.291 24.6082 36.9434 24.3766ZM30 30C28.2742 30 26.875 28.6008 26.875 26.875C26.875 25.1492 28.2742 23.75 30 23.75C31.7258 23.75 33.125 25.1492 33.125 26.875C33.125 28.6008 31.7258 30 30 30ZM41.25 27.5H38.75V40H41.875C42.2203 40 42.5 39.7203 42.5 39.375V28.75C42.5 28.0598 41.9402 27.5 41.25 27.5Z" fill="#D91A1A"/>
</g>
<defs>
<clipPath id="clip0_246_1406">
<rect width="25" height="25" fill="white" transform="translate(17.5 17.5)"/>
</clipPath>
</defs>
</svg>
